<svg version="1.1" id="Layer_1" xmlns="http://www.w3.org/2000/svg" xmlns:xlink="http://www.w3.org/1999/xlink" x="0px" y="0px"
	 width="100%" viewBox="0 0 192 192" enable-background="new 0 0 192 192" xml:space="preserve">
<path fill="none" opacity="1.000000" stroke="none" 
	d="
M116.000000,193.000000 
	C77.358192,193.000000 39.216389,193.000000 1.037290,193.000000 
	C1.037290,129.066559 1.037290,65.133102 1.037290,1.099821 
	C64.891624,1.099821 128.783463,1.099821 192.837646,1.099821 
	C192.837646,64.999664 192.837646,128.999802 192.837646,193.000000 
	C167.466721,193.000000 141.983368,193.000000 116.000000,193.000000 
M18.054716,106.007645 
	C13.779458,107.504715 16.989996,111.036110 16.163548,113.483368 
	C16.121431,113.608078 17.987604,114.377228 19.790831,114.959259 
	C20.518593,115.825882 21.710354,116.611496 21.878698,117.575775 
	C22.242756,119.661140 22.082283,121.838089 22.040695,124.771179 
	C23.274094,127.902985 24.061399,131.320328 25.841892,134.101944 
	C28.760513,138.661636 32.349197,142.789749 35.603115,147.138916 
	C36.785992,148.719955 37.819481,150.412766 39.290939,152.669769 
	C49.365730,162.044022 62.548744,166.118347 74.339622,173.796738 
	C78.332680,175.367981 82.305122,176.608459 86.528801,173.234238 
	C87.027863,173.511932 87.526917,173.789627 88.004974,174.931000 
	C88.656601,175.949814 89.282745,177.834244 89.963783,177.854309 
	C97.238472,178.068481 104.521858,177.987427 112.878738,177.987427 
	C111.514458,175.675659 110.744453,174.370895 110.736992,172.710892 
	C119.976448,171.924789 129.265335,171.291275 137.371353,166.039886 
	C139.655991,164.559784 141.590286,162.332443 144.046509,161.364471 
	C150.135178,158.964996 155.632721,155.847870 160.920441,151.008408 
	C162.498428,150.912369 164.076401,150.816330 165.917053,150.704300 
	C165.917053,147.587067 165.917053,144.822235 166.460678,141.715103 
	C167.325546,140.791534 168.190430,139.867981 169.792664,138.985947 
	C170.526794,138.925705 171.260910,138.865463 172.752197,138.924393 
	C173.437332,137.947968 174.122467,136.971542 174.964569,135.161896 
	C175.317917,133.086487 175.490250,130.959915 176.059402,128.945480 
	C177.615387,123.438087 180.354904,118.054550 180.774948,112.482452 
	C181.547729,102.231361 181.069275,91.878860 180.864670,81.573547 
	C180.846817,80.674538 178.996841,79.811905 177.997910,79.002159 
	C177.997910,79.002159 178.067673,79.001289 178.018784,78.080681 
	C178.011108,75.273750 178.253403,72.431465 177.864090,69.678505 
	C177.722229,68.675438 176.076492,67.885048 174.796936,66.380493 
	C173.816010,64.580994 172.835098,62.781498 171.984726,60.082603 
	C171.984726,57.513325 171.984726,54.944046 171.984726,51.981853 
	C169.661224,51.981853 167.889267,51.981853 165.783356,51.367832 
	C163.366058,47.990654 161.398956,44.137619 158.437378,41.335743 
	C152.346176,35.573002 144.671387,32.528450 137.895966,30.665396 
	C135.129395,27.665430 133.051285,25.412003 130.241135,22.757858 
	C127.169250,22.556877 124.097374,22.355896 120.133034,22.046564 
	C115.356483,21.162533 110.611168,19.965393 105.794365,19.484774 
	C101.211311,19.027475 95.442314,17.631002 92.233627,19.743841 
	C88.860977,21.964651 86.006401,21.484264 82.858147,22.015514 
	C77.014786,23.001553 71.184853,24.068336 65.357590,25.146179 
	C64.943695,25.222734 64.451294,25.581064 64.241295,25.948797 
	C60.511303,32.480465 52.802700,32.872055 47.234303,36.593365 
	C42.720150,39.610134 36.743538,40.201279 36.848175,47.430042 
	C36.855873,47.961971 35.897968,48.544739 35.334766,49.042538 
	C27.130009,56.294605 21.913153,65.001877 21.980944,76.307396 
	C21.984880,76.963852 22.079075,77.810349 21.730034,78.249489 
	C17.159931,83.999329 19.460583,90.653877 19.074587,97.863091 
	C19.014154,100.573364 18.953720,103.283646 18.054716,106.007645 
z"/>
<path fill="#736505" opacity="1.000000" stroke="none" 
	d="
M130.973175,23.158573 
	C133.051285,25.412003 135.129395,27.665430 137.895966,30.665396 
	C144.671387,32.528450 152.346176,35.573002 158.437378,41.335743 
	C161.398956,44.137619 163.366058,47.990654 165.911621,52.064720 
	C167.109253,55.212502 168.061234,57.726997 169.330338,60.069695 
	C169.648575,60.657150 170.985443,60.692768 171.854187,60.982002 
	C172.835098,62.781498 173.816010,64.580994 174.914078,67.148178 
	C175.023804,70.718987 174.745346,73.562050 175.149536,76.304504 
	C175.299881,77.324638 177.048096,78.109268 178.067673,79.001289 
	C178.067673,79.001289 177.997910,79.002159 177.998657,79.439697 
	C177.947479,85.588089 177.895584,91.298958 177.444565,97.032379 
	C176.364777,98.668663 175.233612,100.241051 175.081100,101.903236 
	C174.408386,109.234543 172.977936,116.150864 167.018219,121.262192 
	C166.433029,121.764091 166.119812,122.602943 165.733963,123.314461 
	C160.572403,132.832291 153.245422,140.258621 143.430344,144.768661 
	C135.165955,148.566147 128.215149,156.106842 117.811249,154.292114 
	C116.925140,154.137558 115.916656,154.908112 114.938919,155.019135 
	C108.498230,155.750610 102.023209,157.161362 95.611511,156.926636 
	C86.923462,156.608566 78.278587,155.041214 69.626328,153.923569 
	C68.752548,153.810699 67.939735,153.132782 67.124954,152.670670 
	C59.079998,148.108017 51.040607,143.535522 42.771545,138.702087 
	C39.682644,134.901459 36.920639,131.278427 33.932892,127.852249 
	C31.019541,124.511383 30.317726,119.147186 25.000353,117.561440 
	C23.953152,110.973991 22.982321,104.800453 21.757799,98.677650 
	C21.614744,97.962364 20.071053,97.527191 19.176689,96.962158 
	C19.460583,90.653877 17.159931,83.999329 21.730034,78.249489 
	C22.079075,77.810349 21.984880,76.963852 21.980944,76.307396 
	C21.913153,65.001877 27.130009,56.294605 35.334766,49.042538 
	C35.897968,48.544739 36.855873,47.961971 36.848175,47.430042 
	C36.743538,40.201279 42.720150,39.610134 47.234303,36.593365 
	C52.802700,32.872055 60.511303,32.480465 64.241295,25.948797 
	C64.451294,25.581064 64.943695,25.222734 65.357590,25.146179 
	C71.184853,24.068336 77.014786,23.001553 82.858147,22.015514 
	C86.006401,21.484264 88.860977,21.964651 92.233627,19.743841 
	C95.442314,17.631002 101.211311,19.027475 105.794365,19.484774 
	C110.611168,19.965393 115.356483,21.162533 120.587265,22.507050 
	C123.359047,25.796764 128.216812,25.890203 130.973175,23.158573 
M168.961197,82.038612 
	C168.961197,82.038612 168.941605,82.113487 168.973404,81.177559 
	C168.979675,78.582909 169.305099,75.931618 168.858826,73.417290 
	C168.632446,72.141853 167.014343,71.113434 166.014832,69.082199 
	C165.904205,65.568657 166.343185,62.271366 163.081528,59.264565 
	C159.212799,55.698128 153.922607,52.892170 153.252625,46.651535 
	C153.220062,46.348232 151.794037,46.194530 150.959381,45.194946 
	C148.485489,43.472244 146.057831,41.677437 143.522095,40.051140 
	C141.708160,38.887760 139.718750,38.001873 137.862381,36.899906 
	C135.070328,35.242493 132.487732,33.109245 129.522293,31.896910 
	C125.483047,30.245579 121.223358,29.014418 116.953896,28.079294 
	C112.836227,27.177416 108.705482,28.683077 104.360039,25.634993 
	C101.541199,23.657730 96.048752,25.180828 91.811142,25.649817 
	C89.108490,25.948927 86.558624,27.464485 83.853302,27.941597 
	C79.691803,28.675524 75.108276,26.561832 71.429008,30.689726 
	C69.908386,32.395771 66.998726,32.823071 64.789734,33.965260 
	C60.940243,35.955685 57.082222,37.943787 53.346069,40.134594 
	C50.555611,41.770855 47.624786,43.394115 45.358723,45.632793 
	C43.215614,47.750004 41.967285,50.743694 40.131126,53.207069 
	C36.528259,58.040638 29.540134,60.783150 30.753042,68.572510 
	C30.792698,68.827179 30.510721,69.188988 30.292122,69.418358 
	C26.251886,73.657555 27.732981,78.371185 28.869230,83.622688 
	C28.524094,84.091919 28.178957,84.561157 27.053196,85.073715 
	C23.795015,88.113007 24.163307,92.310013 27.973564,94.708908 
	C28.022902,95.458740 28.072241,96.208565 28.042747,97.824028 
	C28.069016,99.563232 28.095284,101.302429 28.023577,103.865852 
	C31.015112,106.414909 31.376371,109.785751 31.055649,113.398140 
	C31.015755,113.847473 31.192280,114.619087 31.487173,114.750427 
	C37.687485,117.511848 37.483238,125.521774 43.039555,128.786804 
	C47.077934,131.159851 48.784054,137.310547 55.028587,136.891006 
	C57.032925,138.553482 59.037262,140.215942 61.855850,141.984695 
	C62.350792,142.035172 63.060276,141.891556 63.308140,142.165543 
	C66.467155,145.657455 70.255699,147.821350 75.046928,147.999649 
	C78.178009,148.116165 83.131454,147.076721 84.077698,148.573013 
	C86.355721,152.175232 89.128136,150.813660 91.686844,150.926254 
	C97.158783,151.167007 102.648689,151.006302 108.131195,150.993866 
	C109.123413,150.991608 110.755348,151.269501 111.009827,150.813766 
	C113.964653,145.522202 118.886932,148.962448 122.776245,148.008041 
	C124.131439,147.675491 125.652847,147.715546 126.849480,147.100906 
	C129.959473,145.503510 132.931396,143.637329 136.695343,141.930893 
	C138.465179,140.009430 140.235016,138.087967 142.853729,136.027283 
	C144.730759,135.454254 146.332764,135.995041 148.478378,133.957123 
	C154.152832,128.567459 158.753433,122.609940 163.328598,116.358078 
	C165.174866,113.835190 165.908432,111.872856 166.095001,109.083900 
	C166.167404,108.001694 167.381393,107.031738 167.917221,105.933495 
	C168.358719,105.028618 168.566864,104.009888 168.957275,102.175987 
	C168.931015,100.436775 168.904739,98.697563 168.981018,96.217400 
	C169.042618,95.473991 169.104218,94.730591 169.954834,93.928375 
	C173.937302,91.620842 171.403595,87.847458 171.807571,84.783607 
	C171.908661,84.016792 169.916428,82.973976 168.961197,82.038612 
z"/>
<path fill="#494003" opacity="1.000000" stroke="none" 
	d="
M42.999641,138.965836 
	C51.040607,143.535522 59.079998,148.108017 67.124954,152.670670 
	C67.939735,153.132782 68.752548,153.810699 69.626328,153.923569 
	C78.278587,155.041214 86.923462,156.608566 95.611511,156.926636 
	C102.023209,157.161362 108.498230,155.750610 114.938919,155.019135 
	C115.916656,154.908112 116.925140,154.137558 117.811249,154.292114 
	C128.215149,156.106842 135.165955,148.566147 143.430344,144.768661 
	C153.245422,140.258621 160.572403,132.832291 165.733963,123.314461 
	C166.119812,122.602943 166.433029,121.764091 167.018219,121.262192 
	C172.977936,116.150864 174.408386,109.234543 175.081100,101.903236 
	C175.233612,100.241051 176.364777,98.668663 177.506363,97.497299 
	C180.152115,107.410576 174.739258,116.039299 174.899704,125.293884 
	C174.908615,125.807007 174.218216,126.298042 173.987823,126.855003 
	C172.324188,130.876755 170.695236,134.912857 169.055298,138.944412 
	C168.190430,139.867981 167.325546,140.791534 165.808044,141.889297 
	C162.411438,144.434296 159.786591,146.873367 160.053009,150.968979 
	C155.632721,155.847870 150.135178,158.964996 144.046509,161.364471 
	C141.590286,162.332443 139.655991,164.559784 137.371353,166.039886 
	C129.265335,171.291275 119.976448,171.924789 109.996361,172.862808 
	C108.536644,173.026627 107.817551,173.038544 106.710396,172.878937 
	C100.784866,172.246552 95.100517,170.076248 89.630402,174.075806 
	C88.882782,174.047348 88.454384,174.057327 88.025978,174.067322 
	C87.526917,173.789627 87.027863,173.511932 85.884216,172.969391 
	C81.510559,172.821747 77.781494,172.938950 74.052422,173.056152 
	C62.548744,166.118347 49.365730,162.044022 39.459137,152.197266 
	C40.752525,150.068512 42.450466,148.542252 42.863068,146.724274 
	C43.423492,144.254990 43.000729,141.562561 42.999641,138.965836 
z"/>
<path fill="#544A03" opacity="1.000000" stroke="none" 
	d="
M42.771545,138.702087 
	C43.000729,141.562561 43.423492,144.254990 42.863068,146.724274 
	C42.450466,148.542252 40.752525,150.068512 39.274231,151.889679 
	C37.819481,150.412766 36.785992,148.719955 35.603115,147.138916 
	C32.349197,142.789749 28.760513,138.661636 25.841892,134.101944 
	C24.061399,131.320328 23.274094,127.902985 22.466667,124.354424 
	C23.595381,121.955284 24.298124,119.972908 25.000868,117.990524 
	C30.317726,119.147186 31.019541,124.511383 33.932892,127.852249 
	C36.920639,131.278427 39.682644,134.901459 42.771545,138.702087 
z"/>
<path fill="#8D8D8D" opacity="1.000000" stroke="none" 
	d="
M169.423981,138.965179 
	C170.695236,134.912857 172.324188,130.876755 173.987823,126.855003 
	C174.218216,126.298042 174.908615,125.807007 174.899704,125.293884 
	C174.739258,116.039299 180.152115,107.410576 177.905472,97.474731 
	C177.895584,91.298958 177.947479,85.588089 177.998627,79.404800 
	C178.996841,79.811905 180.846817,80.674538 180.864670,81.573547 
	C181.069275,91.878860 181.547729,102.231361 180.774948,112.482452 
	C180.354904,118.054550 177.615387,123.438087 176.059402,128.945480 
	C175.490250,130.959915 175.317917,133.086487 174.547729,135.594849 
	C173.418945,136.953629 172.707001,137.879425 171.995041,138.805237 
	C171.260910,138.865463 170.526794,138.925705 169.423981,138.965179 
z"/>
<path fill="#605404" opacity="1.000000" stroke="none" 
	d="
M25.000353,117.561440 
	C24.298124,119.972908 23.595381,121.955284 22.514502,123.957619 
	C22.082283,121.838089 22.242756,119.661140 21.878698,117.575775 
	C21.710354,116.611496 20.518593,115.825882 19.387325,114.464668 
	C18.953642,111.311356 18.923464,108.652641 18.893286,105.993919 
	C18.953720,103.283646 19.014154,100.573364 19.125637,97.412628 
	C20.071053,97.527191 21.614744,97.962364 21.757799,98.677650 
	C22.982321,104.800453 23.953152,110.973991 25.000353,117.561440 
z"/>
<path fill="#8B8B8B" opacity="1.000000" stroke="none" 
	d="
M88.015472,174.499161 
	C88.454384,174.057327 88.882782,174.047348 89.914581,174.391052 
	C94.323631,174.830566 98.141457,175.127228 101.929527,174.908493 
	C103.682426,174.807297 105.377296,173.701065 107.098465,173.050461 
	C107.817551,173.038544 108.536644,173.026627 109.615097,173.040436 
	C110.744453,174.370895 111.514458,175.675659 112.878738,177.987427 
	C104.521858,177.987427 97.238472,178.068481 89.963783,177.854309 
	C89.282745,177.834244 88.656601,175.949814 88.015472,174.499161 
z"/>
<path fill="#888888" opacity="1.000000" stroke="none" 
	d="
M160.486725,150.988693 
	C159.786591,146.873367 162.411438,144.434296 165.536224,142.060455 
	C165.917053,144.822235 165.917053,147.587067 165.917053,150.704300 
	C164.076401,150.816330 162.498428,150.912369 160.486725,150.988693 
z"/>
<path fill="#888888" opacity="1.000000" stroke="none" 
	d="
M171.919449,60.532303 
	C170.985443,60.692768 169.648575,60.657150 169.330338,60.069695 
	C168.061234,57.726997 167.109253,55.212502 166.078613,52.371727 
	C167.889267,51.981853 169.661224,51.981853 171.984726,51.981853 
	C171.984726,54.944046 171.984726,57.513325 171.919449,60.532303 
z"/>
<path fill="#8B8B8B" opacity="1.000000" stroke="none" 
	d="
M178.043228,78.540985 
	C177.048096,78.109268 175.299881,77.324638 175.149536,76.304504 
	C174.745346,73.562050 175.023804,70.718987 175.074036,67.456741 
	C176.076492,67.885048 177.722229,68.675438 177.864090,69.678505 
	C178.253403,72.431465 178.011108,75.273750 178.043228,78.540985 
z"/>
<path fill="#8B8B8B" opacity="1.000000" stroke="none" 
	d="
M74.196022,173.426453 
	C77.781494,172.938950 81.510559,172.821747 85.609741,172.887939 
	C82.305122,176.608459 78.332680,175.367981 74.196022,173.426453 
z"/>
<path fill="#8B8B8B" opacity="1.000000" stroke="none" 
	d="
M130.607147,22.958214 
	C128.216812,25.890203 123.359047,25.796764 121.033493,22.561226 
	C124.097374,22.355896 127.169250,22.556877 130.607147,22.958214 
z"/>
<path fill="#8D8D8D" opacity="1.000000" stroke="none" 
	d="
M18.474001,106.000778 
	C18.923464,108.652641 18.953642,111.311356 18.974552,114.408203 
	C17.987604,114.377228 16.121431,113.608078 16.163548,113.483368 
	C16.989996,111.036110 13.779458,107.504715 18.474001,106.000778 
z"/>
<path fill="#8B8B8B" opacity="1.000000" stroke="none" 
	d="
M172.373627,138.864807 
	C172.707001,137.879425 173.418945,136.953629 174.469238,136.011475 
	C174.122467,136.971542 173.437332,137.947968 172.373627,138.864807 
z"/>
<path fill="#FCF1B9" opacity="1.000000" stroke="none" 
	d="
M135.958420,141.878387 
	C132.931396,143.637329 129.959473,145.503510 126.849480,147.100906 
	C125.652847,147.715546 124.131439,147.675491 122.776245,148.008041 
	C118.886932,148.962448 113.964653,145.522202 111.009827,150.813766 
	C110.755348,151.269501 109.123413,150.991608 108.131195,150.993866 
	C102.648689,151.006302 97.158783,151.167007 91.686844,150.926254 
	C89.128136,150.813660 86.355721,152.175232 84.077698,148.573013 
	C83.131454,147.076721 78.178009,148.116165 75.046928,147.999649 
	C70.255699,147.821350 66.467155,145.657455 63.308140,142.165543 
	C63.060276,141.891556 62.350792,142.035172 61.432156,141.505524 
	C60.927273,139.436096 60.846085,137.845825 60.760345,136.166489 
	C58.582916,136.166489 56.789062,136.166489 54.995209,136.166489 
	C48.784054,137.310547 47.077934,131.159851 43.039555,128.786804 
	C37.483238,125.521774 37.687485,117.511848 31.487173,114.750427 
	C31.192280,114.619087 31.015755,113.847473 31.055649,113.398140 
	C31.376371,109.785751 31.015112,106.414909 28.517317,103.437103 
	C31.568140,103.008362 34.125225,103.008362 36.686306,103.008362 
	C36.686306,100.708679 36.686306,99.009178 36.686306,96.958397 
	C33.628258,96.958397 30.874918,96.958397 28.121578,96.958397 
	C28.072241,96.208565 28.022902,95.458740 27.974548,93.896797 
	C27.928297,90.399918 27.881058,87.715157 27.833818,85.030388 
	C28.178957,84.561157 28.524094,84.091919 29.299656,83.324509 
	C30.149773,83.002899 30.569460,82.979469 31.061218,83.307861 
	C32.072727,83.384918 33.785007,83.193787 33.825264,82.821724 
	C34.073189,80.530380 33.943806,78.198204 33.968468,75.492447 
	C34.455208,73.782219 34.641342,72.265434 35.420681,71.171082 
	C38.168022,67.313240 41.118820,63.600296 44.340683,60.009323 
	C46.100586,60.787773 48.160526,60.993256 48.811779,62.059307 
	C51.644516,66.696266 55.472973,68.019920 60.742958,66.502060 
	C60.742958,64.837791 60.742958,63.114750 60.742958,61.094707 
	C55.923714,61.517410 52.911636,59.549160 52.008179,54.641289 
	C53.039238,53.568386 53.794174,52.579044 54.792831,52.120445 
	C57.099636,51.061146 60.300209,50.919521 61.746574,49.220768 
	C65.175293,45.193722 68.665016,42.196033 74.308281,42.984619 
	C74.944275,43.073486 75.890625,43.155418 76.233185,42.798817 
	C81.591476,37.220718 88.986282,41.820862 94.921646,39.451019 
	C94.646896,46.130081 94.326797,52.365509 93.975449,58.599178 
	C93.939507,59.236988 93.937531,60.121738 93.546669,60.457378 
	C88.534660,64.761276 92.135887,71.817757 88.224403,76.744186 
	C86.874733,78.444061 88.111031,82.197128 88.097870,85.436050 
	C87.958946,87.572243 87.888206,89.284698 87.380264,91.001709 
	C83.138367,90.667519 79.980576,92.632217 76.561157,93.587166 
	C68.797600,95.755333 60.476524,95.878296 52.426895,97.122543 
	C51.185436,97.314438 50.181419,99.042435 49.043633,100.492416 
	C50.175613,101.616318 51.296009,102.821106 52.494118,102.904099 
	C56.239273,103.163559 60.013779,102.999367 63.813896,102.999367 
	C63.961731,105.262695 64.067368,106.880020 64.205841,109.000000 
	C66.498367,109.000000 68.618317,108.975006 70.737419,109.006523 
	C73.220245,109.043434 77.235008,108.214554 77.915756,109.354874 
	C80.660767,113.953041 84.592545,111.264626 87.932053,112.342148 
	C88.312164,114.927086 86.889511,118.172714 91.084152,117.962158 
	C91.035561,117.965233 91.042458,117.868103 91.030991,118.337891 
	C91.016052,121.442390 90.686035,124.136543 91.150085,126.686157 
	C91.374176,127.917389 93.091606,128.876816 94.084236,129.962372 
	C94.035606,129.965424 94.042496,129.868225 94.030930,130.344421 
	C94.012932,133.611954 94.274658,136.435776 93.941284,139.187500 
	C93.345039,144.109116 95.396523,145.812332 100.493561,144.957153 
	C101.617386,143.989670 102.839897,143.031509 102.904503,142.000748 
	C103.153664,138.025131 103.032867,134.026321 103.025246,130.018311 
	C103.000534,130.000473 103.036255,130.049835 103.468033,130.025330 
	C104.598000,129.180450 105.820587,128.407639 105.900032,127.531219 
	C106.183914,124.399361 106.079941,121.232361 106.450783,117.882339 
	C106.826759,116.155907 106.874657,114.625793 107.330856,113.013695 
	C115.239815,112.595512 121.848587,107.496346 129.738235,108.843582 
	C130.647308,108.998817 132.751831,107.252831 132.821915,106.281525 
	C133.046738,103.165604 134.820526,102.925110 137.186539,102.987305 
	C139.663727,103.052414 142.210068,103.329025 144.596191,102.856613 
	C145.851776,102.608017 146.829773,100.957230 147.957123,99.506203 
	C147.319183,98.385239 146.739548,97.217903 145.981903,97.087898 
	C141.036835,96.239372 135.359451,99.045502 131.261826,94.030090 
	C123.416130,96.033012 116.673943,90.359528 109.028008,90.420731 
	C108.950272,88.340637 108.892105,86.676514 108.900787,84.553925 
	C108.944542,80.779404 110.294662,75.953362 108.631439,74.440781 
	C104.280373,70.483810 106.807983,66.032059 105.999893,61.918285 
	C105.755264,60.672924 105.851921,59.210701 105.215836,58.216648 
	C101.419418,52.283646 102.854218,45.535664 102.440704,39.095627 
	C108.880081,41.478546 115.789223,38.385799 121.812149,42.739769 
	C124.238579,44.493828 128.554306,42.576107 131.775131,45.844704 
	C135.474960,49.599392 140.475021,52.072842 144.944580,55.499088 
	C142.346085,58.137108 139.713287,60.378864 137.080505,62.620625 
	C136.794144,62.317215 136.507797,62.013802 136.221436,61.710388 
	C136.221436,63.314098 136.221436,64.917801 136.221436,66.929520 
	C139.780914,66.435539 143.446594,68.737679 146.075806,64.199165 
	C147.180099,62.292965 150.029831,61.397930 152.435471,60.164986 
	C156.485474,64.874016 160.186081,69.461266 164.055481,74.390305 
	C164.816040,76.321518 165.205994,78.032463 166.065781,79.460541 
	C166.711578,80.533188 167.960938,81.242447 168.941605,82.113487 
	C168.941605,82.113487 168.961197,82.038612 168.972443,82.502785 
	C169.044403,86.640366 169.105118,90.313774 169.165802,93.987183 
	C169.104218,94.730591 169.042618,95.473991 168.484985,96.604523 
	C165.431870,96.991638 162.874786,96.991638 160.313690,96.991638 
	C160.313690,99.291313 160.313690,100.990807 160.313690,103.041618 
	C163.371735,103.041618 166.125092,103.041618 168.878433,103.041618 
	C168.566864,104.009888 168.358719,105.028618 167.917221,105.933495 
	C167.381393,107.031738 166.167404,108.001694 166.095001,109.083900 
	C165.908432,111.872856 165.174866,113.835190 163.328598,116.358078 
	C158.753433,122.609940 154.152832,128.567459 148.478378,133.957123 
	C146.332764,135.995041 144.730759,135.454254 141.998383,136.028366 
	C139.544647,136.029449 137.946259,136.029449 135.958420,136.029449 
	C135.958420,138.304565 135.958420,140.091476 135.958420,141.878387 
z"/>
<path fill="#483F03" opacity="1.000000" stroke="none" 
	d="
M144.910294,55.102829 
	C140.475021,52.072842 135.474960,49.599392 131.775131,45.844704 
	C128.554306,42.576107 124.238579,44.493828 121.812149,42.739769 
	C115.789223,38.385799 108.880081,41.478546 102.136032,38.922234 
	C99.145180,36.203396 96.984520,36.908482 94.867401,39.006882 
	C88.986282,41.820862 81.591476,37.220718 76.233185,42.798817 
	C75.890625,43.155418 74.944275,43.073486 74.308281,42.984619 
	C68.665016,42.196033 65.175293,45.193722 61.746574,49.220768 
	C60.300209,50.919521 57.099636,51.061146 54.792831,52.120445 
	C53.794174,52.579044 53.039238,53.568386 51.603809,54.651714 
	C46.634033,53.618889 46.200676,58.015251 43.992443,59.832390 
	C41.118820,63.600296 38.168022,67.313240 35.420681,71.171082 
	C34.641342,72.265434 34.455208,73.782219 33.552559,75.548126 
	C28.673750,77.178505 32.115833,80.762238 30.989149,82.956039 
	C30.569460,82.979469 30.149773,83.002899 29.414305,83.051689 
	C27.732981,78.371185 26.251886,73.657555 30.292122,69.418358 
	C30.510721,69.188988 30.792698,68.827179 30.753042,68.572510 
	C29.540134,60.783150 36.528259,58.040638 40.131126,53.207069 
	C41.967285,50.743694 43.215614,47.750004 45.358723,45.632793 
	C47.624786,43.394115 50.555611,41.770855 53.346069,40.134594 
	C57.082222,37.943787 60.940243,35.955685 64.789734,33.965260 
	C66.998726,32.823071 69.908386,32.395771 71.429008,30.689726 
	C75.108276,26.561832 79.691803,28.675524 83.853302,27.941597 
	C86.558624,27.464485 89.108490,25.948927 91.811142,25.649817 
	C96.048752,25.180828 101.541199,23.657730 104.360039,25.634993 
	C108.705482,28.683077 112.836227,27.177416 116.953896,28.079294 
	C121.223358,29.014418 125.483047,30.245579 129.522293,31.896910 
	C132.487732,33.109245 135.070328,35.242493 137.862381,36.899906 
	C139.718750,38.001873 141.708160,38.887760 143.522095,40.051140 
	C146.057831,41.677437 148.485489,43.472244 150.981659,46.038673 
	C150.992935,49.611488 150.981934,52.340576 150.538605,55.045437 
	C148.374283,55.048412 146.642288,55.075623 144.910294,55.102829 
z"/>
<path fill="#524803" opacity="1.000000" stroke="none" 
	d="
M150.970932,55.069668 
	C150.981934,52.340576 150.992935,49.611488 151.010422,46.426781 
	C151.794037,46.194530 153.220062,46.348232 153.252625,46.651535 
	C153.922607,52.892170 159.212799,55.698128 163.081528,59.264565 
	C166.343185,62.271366 165.904205,65.568657 166.008820,69.907318 
	C165.297440,71.837799 164.592072,72.943161 163.886688,74.048515 
	C160.186081,69.461266 156.485474,64.874016 152.273346,59.831657 
	C151.498184,57.940929 151.234558,56.505299 150.970932,55.069668 
z"/>
<path fill="#545454" opacity="1.000000" stroke="none" 
	d="
M28.082163,97.391212 
	C30.874918,96.958397 33.628258,96.958397 36.686306,96.958397 
	C36.686306,99.009178 36.686306,100.708679 36.686306,103.008362 
	C34.125225,103.008362 31.568140,103.008362 28.566303,103.024994 
	C28.095284,101.302429 28.069016,99.563232 28.082163,97.391212 
z"/>
<path fill="#545454" opacity="1.000000" stroke="none" 
	d="
M168.917847,102.608803 
	C166.125092,103.041618 163.371735,103.041618 160.313690,103.041618 
	C160.313690,100.990807 160.313690,99.291313 160.313690,96.991638 
	C162.874786,96.991638 165.431870,96.991638 168.433716,96.974991 
	C168.904739,98.697563 168.931015,100.436775 168.917847,102.608803 
z"/>
<path fill="#605404" opacity="1.000000" stroke="none" 
	d="
M164.055481,74.390305 
	C164.592072,72.943161 165.297440,71.837799 166.014099,70.352890 
	C167.014343,71.113434 168.632446,72.141853 168.858826,73.417290 
	C169.305099,75.931618 168.979675,78.582909 168.957504,81.645523 
	C167.960938,81.242447 166.711578,80.533188 166.065781,79.460541 
	C165.205994,78.032463 164.816040,76.321518 164.055481,74.390305 
z"/>
<path fill="#605404" opacity="1.000000" stroke="none" 
	d="
M169.560333,93.957779 
	C169.105118,90.313774 169.044403,86.640366 168.934998,82.512482 
	C169.916428,82.973976 171.908661,84.016792 171.807571,84.783607 
	C171.403595,87.847458 173.937302,91.620842 169.560333,93.957779 
z"/>
<path fill="#545454" opacity="1.000000" stroke="none" 
	d="
M136.326874,141.904633 
	C135.958420,140.091476 135.958420,138.304565 135.958420,136.029449 
	C137.946259,136.029449 139.544647,136.029449 141.573944,136.097961 
	C140.235016,138.087967 138.465179,140.009430 136.326874,141.904633 
z"/>
<path fill="#545454" opacity="1.000000" stroke="none" 
	d="
M55.011898,136.528748 
	C56.789062,136.166489 58.582916,136.166489 60.760345,136.166489 
	C60.846085,137.845825 60.927273,139.436096 61.025032,141.452393 
	C59.037262,140.215942 57.032925,138.553482 55.011898,136.528748 
z"/>
<path fill="#483F03" opacity="1.000000" stroke="none" 
	d="
M27.443508,85.052048 
	C27.881058,87.715157 27.928297,90.399918 27.904676,93.527145 
	C24.163307,92.310013 23.795015,88.113007 27.443508,85.052048 
z"/>
<path fill="#443C03" opacity="1.000000" stroke="none" 
	d="
M106.710403,172.878937 
	C105.377296,173.701065 103.682426,174.807297 101.929527,174.908493 
	C98.141457,175.127228 94.323631,174.830566 90.233795,174.429474 
	C95.100517,170.076248 100.784866,172.246552 106.710403,172.878937 
z"/>
<path fill="#C63939" opacity="1.000000" stroke="none" 
	d="
M94.921646,39.451019 
	C96.984520,36.908482 99.145180,36.203396 101.713791,38.975807 
	C102.854218,45.535664 101.419418,52.283646 105.215836,58.216648 
	C105.851921,59.210701 105.755264,60.672924 105.999893,61.918285 
	C106.807983,66.032059 104.280373,70.483810 108.631439,74.440781 
	C110.294662,75.953362 108.944542,80.779404 108.484810,84.550537 
	C106.404465,84.487503 103.841820,84.407097 103.374413,83.376472 
	C101.208992,78.601715 99.170311,73.791740 99.877769,68.148857 
	C100.472145,63.408039 100.048904,58.532646 99.969917,53.718575 
	C99.945618,52.237778 99.571205,50.762733 99.357109,49.285053 
	C98.816467,49.277203 98.275818,49.269348 97.735168,49.261494 
	C97.490219,50.858334 97.051842,52.452988 97.033775,54.052391 
	C96.955002,61.025490 97.090866,68.001602 96.967903,74.973427 
	C96.871223,80.454712 92.830132,84.912346 88.166061,85.012306 
	C88.111031,82.197128 86.874733,78.444061 88.224403,76.744186 
	C92.135887,71.817757 88.534660,64.761276 93.546669,60.457378 
	C93.937531,60.121738 93.939507,59.236988 93.975449,58.599178 
	C94.326797,52.365509 94.646896,46.130081 94.921646,39.451019 
z"/>
<path fill="#272727" opacity="1.000000" stroke="none" 
	d="
M106.922562,113.095680 
	C106.874657,114.625793 106.826759,116.155907 106.034271,117.880371 
	C104.527916,119.262283 103.257027,120.389877 103.108635,121.649673 
	C102.783012,124.414215 103.025642,127.245689 103.036255,130.049835 
	C103.036255,130.049835 103.000534,130.000473 102.649643,130.021271 
	C101.526535,131.055969 100.754333,132.069885 99.581528,133.045563 
	C97.468117,131.960953 95.755310,130.914597 94.042496,129.868225 
	C94.042496,129.868225 94.035606,129.965424 94.024117,129.506409 
	C94.008324,126.307236 93.805573,123.548645 94.057915,120.832336 
	C94.290428,118.329575 93.130119,117.753052 91.042458,117.868103 
	C91.042458,117.868103 91.035561,117.965233 91.024078,117.520905 
	C89.937424,114.430786 93.215897,110.741722 88.964996,108.448746 
	C88.570969,105.343513 88.250633,102.628815 87.956589,99.920219 
	C87.982872,99.926323 87.955521,99.972847 88.390144,99.979980 
	C92.468994,99.559662 93.936859,100.711090 94.231873,104.825615 
	C94.478333,108.262840 96.740593,111.555519 98.471397,115.797615 
	C100.296570,111.590195 102.615288,108.524559 102.762650,105.357880 
	C102.970818,100.884087 104.359856,99.299088 108.757187,100.141869 
	C108.888916,100.207588 109.121391,100.026939 109.066429,100.459045 
	C108.289574,103.414772 107.416039,105.908142 106.904053,108.473656 
	C106.608597,109.954140 106.896965,111.551132 106.922562,113.095680 
z"/>
<path fill="#FFFFFF" opacity="1.000000" stroke="none" 
	d="
M107.330856,113.013695 
	C106.896965,111.551132 106.608597,109.954140 106.904053,108.473656 
	C107.416039,105.908142 108.289574,103.414772 109.527122,100.447388 
	C122.672890,99.982285 135.303009,99.960945 147.933121,99.939598 
	C146.829773,100.957230 145.851776,102.608017 144.596191,102.856613 
	C142.210068,103.329025 139.663727,103.052414 137.186539,102.987305 
	C134.820526,102.925110 133.046738,103.165604 132.821915,106.281525 
	C132.751831,107.252831 130.647308,108.998817 129.738235,108.843582 
	C121.848587,107.496346 115.239815,112.595512 107.330856,113.013695 
z"/>
<path fill="#545454" opacity="1.000000" stroke="none" 
	d="
M87.930298,99.914116 
	C88.250633,102.628815 88.570969,105.343513 88.643333,108.603745 
	C88.231239,110.072830 88.067116,110.996376 87.902985,111.919922 
	C84.592545,111.264626 80.660767,113.953041 77.915756,109.354874 
	C77.235008,108.214554 73.220245,109.043434 70.737419,109.006523 
	C68.618317,108.975006 66.498367,109.000000 64.205841,109.000000 
	C64.067368,106.880020 63.961731,105.262695 63.813896,102.999367 
	C60.013779,102.999367 56.239273,103.163559 52.494118,102.904099 
	C51.296009,102.821106 50.175613,101.616318 49.505196,100.466621 
	C62.637253,99.977005 75.283775,99.945564 87.930298,99.914116 
z"/>
<path fill="#AB3232" opacity="1.000000" stroke="none" 
	d="
M88.097870,85.436050 
	C92.830132,84.912346 96.871223,80.454712 96.967903,74.973427 
	C97.090866,68.001602 96.955002,61.025490 97.033775,54.052391 
	C97.051842,52.452988 97.490219,50.858334 97.735168,49.261494 
	C98.275818,49.269348 98.816467,49.277203 99.357109,49.285053 
	C99.571205,50.762733 99.945618,52.237778 99.969917,53.718575 
	C100.048904,58.532646 100.472145,63.408039 99.877769,68.148857 
	C99.170311,73.791740 101.208992,78.601715 103.374413,83.376472 
	C103.841820,84.407097 106.404465,84.487503 108.417969,85.008995 
	C108.892105,86.676514 108.950272,88.340637 108.949753,90.500061 
	C108.891060,90.995361 108.757256,91.173508 108.313629,91.114128 
	C101.291939,91.045586 94.713882,91.036423 88.051544,91.069229 
	C87.967278,91.111206 87.817467,90.997154 87.817467,90.997154 
	C87.888206,89.284698 87.958946,87.572243 88.097870,85.436050 
z"/>
<path fill="#FFFFFF" opacity="1.000000" stroke="none" 
	d="
M87.956589,99.920219 
	C75.283775,99.945564 62.637253,99.977005 49.529163,100.034241 
	C50.181419,99.042435 51.185436,97.314438 52.426895,97.122543 
	C60.476524,95.878296 68.797600,95.755333 76.561157,93.587166 
	C79.980576,92.632217 83.138367,90.667519 87.380264,91.001709 
	C87.817467,90.997154 87.967278,91.111206 87.990921,91.510460 
	C87.994881,94.597427 87.975197,97.285133 87.955521,99.972847 
	C87.955521,99.972847 87.982872,99.926323 87.956589,99.920219 
z"/>
<path fill="#545454" opacity="1.000000" stroke="none" 
	d="
M147.957123,99.506203 
	C135.303009,99.960945 122.672890,99.982285 109.582085,100.015282 
	C109.121391,100.026939 108.888916,100.207588 108.868385,99.699524 
	C108.817657,96.518806 108.787453,93.846161 108.757256,91.173508 
	C108.757256,91.173508 108.891060,90.995361 108.969315,90.916031 
	C116.673943,90.359528 123.416130,96.033012 131.261826,94.030090 
	C135.359451,99.045502 141.036835,96.239372 145.981903,97.087898 
	C146.739548,97.217903 147.319183,98.385239 147.957123,99.506203 
z"/>
<path fill="#545454" opacity="1.000000" stroke="none" 
	d="
M44.340683,60.009323 
	C46.200676,58.015251 46.634033,53.618889 51.438385,54.976357 
	C52.911636,59.549160 55.923714,61.517410 60.742958,61.094707 
	C60.742958,63.114750 60.742958,64.837791 60.742958,66.502060 
	C55.472973,68.019920 51.644516,66.696266 48.811779,62.059307 
	C48.160526,60.993256 46.100586,60.787773 44.340683,60.009323 
z"/>
<path fill="#545454" opacity="1.000000" stroke="none" 
	d="
M150.538605,55.045437 
	C151.234558,56.505299 151.498184,57.940929 151.923950,59.709885 
	C150.029831,61.397930 147.180099,62.292965 146.075806,64.199165 
	C143.446594,68.737679 139.780914,66.435539 136.221436,66.929520 
	C136.221436,64.917801 136.221436,63.314098 136.221436,61.710388 
	C136.507797,62.013802 136.794144,62.317215 137.080505,62.620625 
	C139.713287,60.378864 142.346085,58.137108 144.944580,55.499088 
	C146.642288,55.075623 148.374283,55.048412 150.538605,55.045437 
z"/>
<path fill="#FFFFFF" opacity="1.000000" stroke="none" 
	d="
M94.030930,130.344421 
	C95.755310,130.914597 97.468117,131.960953 99.589241,133.500244 
	C100.018501,137.639801 100.039444,141.286469 100.060394,144.933121 
	C95.396523,145.812332 93.345039,144.109116 93.941284,139.187500 
	C94.274658,136.435776 94.012932,133.611954 94.030930,130.344421 
z"/>
<path fill="#545454" opacity="1.000000" stroke="none" 
	d="
M100.493561,144.957153 
	C100.039444,141.286469 100.018501,137.639801 99.989838,133.538467 
	C100.754333,132.069885 101.526535,131.055969 102.674347,130.039108 
	C103.032867,134.026321 103.153664,138.025131 102.904503,142.000748 
	C102.839897,143.031509 101.617386,143.989670 100.493561,144.957153 
z"/>
<path fill="#FFFFFF" opacity="1.000000" stroke="none" 
	d="
M91.030991,118.337891 
	C93.130119,117.753052 94.290428,118.329575 94.057915,120.832336 
	C93.805573,123.548645 94.008324,126.307236 94.072746,129.503357 
	C93.091606,128.876816 91.374176,127.917389 91.150085,126.686157 
	C90.686035,124.136543 91.016052,121.442390 91.030991,118.337891 
z"/>
<path fill="#545454" opacity="1.000000" stroke="none" 
	d="
M103.468033,130.025330 
	C103.025642,127.245689 102.783012,124.414215 103.108635,121.649673 
	C103.257027,120.389877 104.527916,119.262283 105.706192,118.076691 
	C106.079941,121.232361 106.183914,124.399361 105.900032,127.531219 
	C105.820587,128.407639 104.598000,129.180450 103.468033,130.025330 
z"/>
<path fill="#FFFFFF" opacity="1.000000" stroke="none" 
	d="
M87.932053,112.342148 
	C88.067116,110.996376 88.231239,110.072830 88.717026,108.994278 
	C93.215897,110.741722 89.937424,114.430786 91.072670,117.517822 
	C86.889511,118.172714 88.312164,114.927086 87.932053,112.342148 
z"/>
<path fill="#E1D69F" opacity="1.000000" stroke="none" 
	d="
M31.061218,83.307861 
	C32.115833,80.762238 28.673750,77.178505 33.524002,75.935295 
	C33.943806,78.198204 34.073189,80.530380 33.825264,82.821724 
	C33.785007,83.193787 32.072727,83.384918 31.061218,83.307861 
z"/>
<path fill="#383838" opacity="1.000000" stroke="none" 
	d="
M108.313629,91.114128 
	C108.787453,93.846161 108.817657,96.518806 108.736664,99.633804 
	C104.359856,99.299088 102.970818,100.884087 102.762650,105.357880 
	C102.615288,108.524559 100.296570,111.590195 98.471397,115.797615 
	C96.740593,111.555519 94.478333,108.262840 94.231873,104.825615 
	C93.936859,100.711090 92.468994,99.559662 88.390144,99.979980 
	C87.975197,97.285133 87.994881,94.597427 88.075195,91.468491 
	C94.713882,91.036423 101.291939,91.045586 108.313629,91.114128 
z"/>
</svg>