 <svg  version="1.0" xmlns="http://www.w3.org/2000/svg"  width="300.000000pt" height="221.000000pt" viewBox="0 0 300.000000 221.000000"  preserveAspectRatio="xMidYMid meet">  <g transform="translate(0.000000,221.000000) scale(0.100000,-0.100000)" fill="#000000" stroke="none"> <path d="M1483 1965 c1 -91 5 -165 9 -165 3 0 9 27 13 60 8 68 -3 270 -15 270 -5 0 -7 -74 -7 -165z"/> <path d="M2205 1654 c-66 -35 -127 -69 -135 -73 -8 -5 -28 -15 -45 -22 -43 -19 -65 -39 -65 -61 0 -24 12 -23 28 2 7 11 17 20 22 20 6 0 28 11 49 25 22 13 51 27 65 31 14 3 26 10 26 14 0 4 8 10 18 14 9 3 35 16 57 29 69 39 99 55 118 61 19 6 14 26 -6 26 -7 0 -66 -30 -132 -66z"/> <path d="M640 1637 c0 -6 48 -37 107 -67 100 -51 218 -134 236 -166 9 -17 37 -19 37 -3 0 16 -65 74 -130 117 -47 31 -236 132 -247 132 -1 0 -3 -6 -3 -13z"/> <path d="M1328 1610 c-42 -33 -60 -98 -54 -192 9 -127 15 -178 27 -233 17 -72 -1 -130 -44 -149 -38 -16 -61 -40 -82 -86 -8 -19 -19 -42 -24 -50 -20 -32 -81 -166 -81 -177 0 -15 -79 -55 -97 -49 -12 5 -11 11 6 32 16 21 18 30 10 40 -9 11 -8 14 0 14 7 0 9 5 6 10 -10 17 -36 11 -56 -12 -23 -28 -25 -78 -4 -78 22 0 18 -12 -15 -48 -34 -38 -36 -42 -16 -42 8 0 23 12 34 27 l20 28 8 -30 c4 -17 11 -35 16 -41 5 -7 1 -31 -12 -63 -14 -38 -16 -51 -7 -51 7 0 19 17 27 38 7 20 15 32 17 25 3 -7 20 -15 39 -19 19 -3 37 -10 40 -15 8 -14 24 -10 24 6 0 9 -17 19 -46 26 -25 7 -48 19 -51 28 -3 9 -11 30 -19 48 -20 44 -18 63 6 63 19 0 59 18 70 31 3 3 100 10 215 14 116 5 224 9 240 10 74 4 166 19 230 38 39 11 85 20 104 19 43 -1 116 38 159 85 37 42 38 47 13 96 -23 45 -28 109 -15 194 5 36 3 44 -12 50 -38 14 -63 63 -32 63 6 0 4 7 -6 18 -18 21 -74 27 -121 13 -16 -5 -61 -17 -99 -26 -38 -9 -104 -34 -147 -56 -43 -21 -85 -39 -93 -39 -15 0 -26 21 -26 51 0 10 -4 19 -9 19 -11 0 -39 94 -45 155 -3 28 -8 79 -12 115 -6 60 -33 120 -53 120 -5 0 -19 -9 -33 -20z m50 -32 c10 -21 14 -50 28 -193 6 -61 34 -155 45 -155 5 0 9 -9 9 -21 0 -33 19 -59 44 -59 13 0 70 22 127 49 59 28 124 51 149 54 25 2 36 2 25 0 -11 -3 -26 -10 -33 -15 -7 -6 -25 -18 -41 -27 -25 -14 -56 -46 -138 -144 -38 -45 -31 -57 33 -57 l56 0 -16 -22 c-27 -37 -30 -49 -15 -59 15 -11 93 -7 124 5 11 5 3 -4 -18 -20 -36 -26 -57 -67 -42 -82 8 -8 110 -9 140 -1 56 14 128 69 144 109 8 22 10 22 10 5 1 -12 6 -26 12 -32 26 -26 -111 -123 -174 -123 -18 0 -64 -9 -102 -19 -103 -28 -151 -33 -458 -46 l-198 -8 11 29 c6 15 20 44 30 64 11 19 26 51 35 70 36 80 62 116 101 136 29 15 42 30 52 60 14 39 13 63 -10 214 -20 136 -21 199 -3 243 29 71 52 86 73 45z m560 -350 c-1 -35 -28 -66 -82 -95 -16 -8 -52 -33 -79 -54 -27 -22 -57 -39 -68 -39 -10 0 -19 -4 -19 -8 0 -5 -20 -9 -45 -9 -27 0 -45 5 -45 12 0 6 25 38 55 70 30 33 55 62 55 65 0 20 151 87 197 89 29 1 32 -1 31 -31z m62 -69 c0 -30 -30 -90 -42 -83 -5 3 -16 3 -26 -1 -13 -5 -13 -8 -4 -14 15 -9 -58 -60 -141 -98 -47 -22 -117 -31 -117 -15 1 22 92 97 165 136 28 14 70 42 95 60 53 40 70 44 70 15z m-11 -170 c-2 -27 -5 -53 -8 -57 -3 -5 -32 -26 -65 -47 -44 -28 -72 -38 -116 -42 -83 -8 -88 9 -15 62 22 17 44 36 48 42 4 7 13 13 19 13 6 0 25 12 43 28 18 15 41 34 51 43 31 26 45 12 43 -42z m-1021 -266 c-5 -25 -28 -28 -28 -4 0 12 6 21 16 21 9 0 14 -7 12 -17z"/> <path d="M250 1035 c-8 -10 11 -14 97 -19 59 -3 157 -9 217 -12 89 -5 108 -4 104 7 -3 10 -35 16 -109 21 -218 16 -298 17 -309 3z"/> <path d="M2257 1044 c-16 -16 -3 -22 66 -27 39 -3 104 -10 142 -16 109 -15 246 -19 242 -7 -2 6 -39 14 -83 18 -43 3 -115 12 -159 18 -112 17 -199 22 -208 14z"/> <path d="M2045 569 c-8 -12 23 -38 47 -39 9 0 18 -3 20 -8 2 -4 23 -23 48 -42 25 -19 47 -38 50 -41 3 -4 30 -18 60 -32 30 -14 67 -34 82 -43 30 -20 51 -12 27 10 -8 7 -50 33 -94 56 -44 24 -100 59 -125 79 -45 37 -95 71 -104 71 -3 0 -8 -5 -11 -11z"/> <path d="M695 540 c-3 -5 -27 -16 -53 -24 -52 -15 -197 -89 -224 -113 -20 -17 -24 -43 -8 -43 6 0 20 10 32 23 29 28 166 97 195 97 13 0 23 4 23 8 0 5 16 16 36 25 19 10 32 22 29 27 -8 13 -22 13 -30 0z"/> <path d="M1456 388 c-13 -48 -18 -203 -7 -230 19 -49 27 -30 26 65 0 50 4 113 8 140 7 38 5 47 -6 47 -8 0 -17 -10 -21 -22z"/> </g> </svg> 